<svg id="Layer_2" data-name="Layer 2" xmlns="http://www.w3.org/2000/svg" viewBox="0 0 1540.17 608.65"><defs><style>.cls-1{fill:#fff;}</style></defs><title>lapolice</title><path class="cls-1" d="M446.78,590.11c-1.58-6.94.12-9.18-2.48-13.9-2.24-4.05-4.6-4.42-8.44-7.94-8.32-7.62-10.77-18.32-13.41-29.79a95.23,95.23,0,0,1-2-12.41c10.78,1.77,14,.25,14.89-1.49,1.37-2.59-2.35-5.71-4.47-13.4-1.23-4.5-1-7.11-1-14.4,0-5.61-.2-13.7-1-23.83A18.11,18.11,0,0,1,421,480.4c-2.37,1.11-5.32,2.49-7.45,1.49-4.5-2.11-2.63-13.45-2-26.81.83-17-1.45-14-1-32.77.76-30.73,7-45.55-2-55.6-1.77-2-3.65-3.23-5-6.45-2.91-7.14,1.7-12.38,1.49-22.84A37.1,37.1,0,0,0,402.6,325q-7.39,22.49-14.4,46.17c-9.85,33.36-18.22,65.7-25.32,96.81a79.32,79.32,0,0,0-13.4-11.92c-17.71-12.45-36.31-14.57-46.17-14.89a101.75,101.75,0,0,0,12.9-8.94c8.79-7.14,9.7-10.32,24.33-27.8,10.25-12.25,15-16.86,13.4-21.84-1.14-3.64-4.44-3.73-5.95-8.44-1.86-5.82,2.44-8,2-14.9-.57-8.69-7.68-10.19-7.44-18.36.17-6.16,4.29-8,3-10.93-2.17-4.88-15.15-3.67-26.8-2.48-10.46,1.07-17.93,1.83-28.3,5a130.83,130.83,0,0,0-41.7,21.84C234.85,365,223.45,373.83,217.42,390c-5.31,14.28-3.89,27.44-2.48,34.76,3.33,5.7,8.25,12.44,13.4,11.91,4.77-.48,7.18-6.94,11.92-14.89a111.54,111.54,0,0,1,20.85-25.32,119,119,0,0,0,3.47,27.3c1.83,7.27,4.21,13.63,1,19.36-1.88,3.34-3.65,2.91-6.46,6.95-3.34,4.83-6.32,13.37-3,17.88s9.91,1.4,13.41,6.45c1.17,1.69,1.18,3.11,1.49,8.94.88,16.57.24-4.93,1,15.88.54,15,.6,18.86-1,24.33-1,3.26-1.46,4.92-3,6.45-5,5-14.55,2.85-20.85,1.49-9.64-2.08-23.13-4.69-41.7-7.44-1.13,2.56-5,12.13-.5,19.85,2.17,3.73,5.51,5.68,10.43,7.95,16.69,7.7,29.78,9.43,29.78,9.43a165.34,165.34,0,0,0,49.15-1A156.63,156.63,0,0,0,345.5,541c-.31,3.45-.74,8.8-1,15.39-.42,11.27.15,13.87-.49,22.34-.91,11.95-2.45,12.12-2,17.37.48,5.53,2.88,13.33,11.91,22.34.7-4.26,1.71-11,2.49-19.36,1.37-14.7.47-17.4,2-28.3,1-7.09,2.48-13,5.46-24.82,2.45-9.71,4.76-17.71,6.46-23.33l36.73-3c.08,5.93.39,14.52,1.49,24.82,3.86,36.09,13,51.65,15.39,55.6,4.14,6.74,11.75,19.15,19.86,17.88,4.55-.72,8.73-5.64,9.43-10.43C454.11,601.6,449.09,600.26,446.78,590.11ZM287.92,383.59c15.53-9.91,31.38-10.34,37.23-10.42a75.32,75.32,0,0,1,9.93.49,224.37,224.37,0,0,1-42.7,48.65q-6,5.1-11.91,9.44l-1-41.71A63.51,63.51,0,0,1,287.92,383.59ZM340,488.84c-2.05.74-6.94,2.51-7.94,6-1.58,5.44,8.2,9.43,7.45,14.89-.6,4.32-7.37,6.59-24.33,11.42-30.29,8.61-33,8.26-34.75,6.45-5.08-5.19,4.69-15,2-35.25-1.52-11.36-5.38-14.15-3-17.87,5.76-9,33.3-.84,49.64,4,13.86,4.09,21.14,7.87,20.85,8.94C349.76,488.14,345.58,486.84,340,488.84Zm33.27-.5c4.95-27.84,12.19-62.48,17.87-62,5.47.4,7.58,33.14,8.44,61.56Z" transform="translate(-202.88 -325.01)"/><path class="cls-1" d="M459.19,537c2.63,3.66,6.53,6.9,5.46,8.94-1.31,2.52-9.68,2.28-14.39-2-3.88-3.51-4.16-8.74-4.47-13.9-.65-10.6-2.5-21.15-2.48-31.77.05-39.16-.36-36.1,0-39.72,1.78-18.17,5-23.69,1.48-33.26a24.45,24.45,0,0,1-2-11.91c.78-6.81,5-12.88,6.95-12.41,1.44.33.75,3.91,3,9.93a38,38,0,0,0,5,8.93c5.11,7.89,3,19.23,2,25.82-3,19.93,1.77,16-1,45.17C456.28,516.36,452,526.92,459.19,537Z" transform="translate(-202.88 -325.01)"/><path class="cls-1" d="M433.38,376.14c2.69,5.88,9.6,7.68,14.39,8.94a43.58,43.58,0,0,0,22.84-.5c11.13-3.2,11.3-7.84,23.33-10.42,3.81-.82,7.55-1.16,7.95-3,.35-1.62-2.19-3.33-7.45-6.95-15.1-10.39-13.78-9.76-15.89-10.92-8.64-4.77-13-7.16-17.37-7.45-11.35-.75-23.39,7.35-27.31,17.87C433.05,366,431.1,371.18,433.38,376.14Z" transform="translate(-202.88 -325.01)"/><path class="cls-1" d="M771,513.66c-2.16-1-5.85,4.19-11.91,10.43-7,7.2-14.76,12.41-30.29,22.83a349.78,349.78,0,0,1-41.7,23.83c-30.78,15.33-39.75,15.41-45.17,14.9-3.66-.35-17.95-1.71-23.83-11.42-2.5-4.12-1.11-5.81-3-16.88-2.81-16.58-7.47-21.89-4.47-25.82,2.79-3.66,9.44-2.45,17.37-1.49,15.62,1.91,31.46.68,47.17,1.49,41.75,2.16,41.63,1.71,44.68,3,1.71.71,6.89,3,8.93,1s-1.15-7-2.48-14.39c-1-5.65-.2-9,3-24.33s4.78-23,5-24.32c2.31-16.51-1.12-29.69-4-40.71-5.28-20.34-13.3-32-17.37-37.24C704,383,699.18,382.72,697,383.09c-3.79.66-4.62,4.19-11.91,7.45-4.6,2-6,1.41-9.44,3-7,3.17-10.28,9.86-11.91,12.91-13.8,25.84-38.42,32.87-49.15,66.52-2.79,8.74-4.45,18.69-13.4,25.82-1.7,1.35-8.27,6.57-15.89,5.46-6.7-1-9.45-6.17-15.39-11.92-4.71-4.56-14.73-9-34.75-17.87-10.43-4.62-20.63-9.81-31.28-13.9S485.26,454,484,448.13c-.94-4.48,2.47-8.69,3.48-9.93,2.32-2.86,9.05-9.52,45.18-8.44,30,.9,38.63,5.89,43.19,9.43,2.53,2,10.87,8.46,9.93,15.39-.41,3-2.25,3.93-2,6.46.7,6.89,15.59,12.26,17.87,9.43,1.65-2-5-6.19-5.95-15.89-.69-7.18,2.55-9.28,2-16.38s-4.37-12.13-6.45-14.89c-8.38-11.12-22.72-13.84-37.24-16.39-14-2.45-35.15-5.91-59.57,2.49-10.63,3.65-20.21,7.11-25.82,16.88-6.73,11.73-3.05,24.43-2.48,26.31,2.36,7.69,7.61,14.88,22.84,24.82,19.82,12.95,28.23,12.07,57.59,25.32,30.12,13.59,38.31,22.19,40.71,30.28,1.24,4.2,1.54,10.33,2,19.36.3,6.1.15,9.51-2,10.93-1.84,1.22-3.92.14-7.95-.5-6.13-1-10,.13-13.9.5-11.54,1.08-27.78-3.93-32.76-5.47A127.68,127.68,0,0,1,493.94,538c-11.35-8.2-17.75-13-17.87-19.86-.14-8.23,8.76-11.73,7.45-20.36-.92-6-6.35-11.6-9.93-10.92-.61.12-2.67.7-5.46,8.94a53.16,53.16,0,0,0-3.48,19.36c0,4,.33,18,8.44,31.28,9.48,15.54,24.25,21.35,43.19,28.79,18.15,7.13,33.59,9.09,44.68,10.43a218.58,218.58,0,0,0,31.78,1.49,52.76,52.76,0,0,0,3.47,10.92,59.08,59.08,0,0,0,13.41,18.37c5.06,4.78,12.13,11.45,22.34,13.9,11.53,2.76,21.12-1.27,35.24-7.45,7.07-3.09,8.9-4.61,33.76-20.35,24.15-15.29,26.07-16.17,30.78-20.86,8.54-8.49,6.23-9.6,19.36-24.32,9.37-10.49,13.2-12.91,16.88-20.85C772.5,526.76,773.87,515,771,513.66ZM648.84,469.48c8.52-12,6.77-17,15.39-26.81,4.5-5.14,13.86-15.83,23.83-14.4,11.14,1.6,17,17.48,21.84,30.78,5.11,13.92,7.91,21.58,5,28.3-10.4,23.68-83.67,15.83-85.88,3.47C628.16,486.24,637.81,485,648.84,469.48Z" transform="translate(-202.88 -325.01)"/><path class="cls-1" d="M1487.34,889c-13.37-7.15-24.5-13.42-28.79-15.89-10.12-5.83-24.62-15-53.62-37.73-32-25.07-51.38-40.24-75.46-64.54a576.17,576.17,0,0,1-47.66-54.61,107.43,107.43,0,0,1-12.91,13.9c-8.15,7.35-12,8.6-12.91,12.91-1.13,5.64,4.14,10.56,12.91,19.86,20.17,21.39-9-5.93,22.84,25.81,12,11.93,25.55,25.27,40.71,39.72-30.28-15-62.72-29.73-97.31-43.69a1400,1400,0,0,0-249.21-74.47,215,215,0,0,1-46.67-92.33c23-1,30.11-6,31.77-10.93,2-5.8-4.23-9.86-4-20.85.29-12.46,8.51-18,6-21.84-4.07-6.07-24.77,8.5-35.75,1-8-5.45-6.73-19.74-4-47.66,4-40.64,12.08-49.53,6-64.54-1.31-3.2-5.43-12-5-23.83a48.39,48.39,0,0,1,2-11.91c-9.64,17.44-17.11,31.62-21.84,40.71-20,38.41-29.24,59.55-49.65,94.32-3.85,6.57-7,11.82-8.93,14.9-24.71,8.08-52,15-56.6,7-1.9-3.3,1.2-7.07,7.94-20.85,9.72-19.87,17.27-35.3,18.87-53.62.41-4.77-.39-14-2-32.52-1.4-16.15-2.46-21.31-4.47-21.59-2.42-.34-5.4,6.57-6.7,10.42-3.56,10.54-1.91,19.72-1.49,23.09,1,7.5-4.69,18.93-14.89,41.7-1.89,4.23-7.43,16.44-15.64,32-9.25,17.55-13.87,26.33-20.1,35s-8.83,10.71-11.92,17.87c-1.81,4.2-9.15,21.2-1.49,29,4.31,4.41,11.26,3.8,11.92,3.73,7.19-.74,12-6.49,14.14-8.94C788.33,613,817.31,600.68,830,608a14.1,14.1,0,0,1,6.7,8.93c1.33,6.4-3.89,10.31-10.42,21.6-6,10.29-4,11.21-11.17,25.32a162.48,162.48,0,0,1-11.92,20.1c-14.83,19.65-63.24,10-91.35,5.46-2.26-.36-43.54-2.89-126.09-7.94-46.15-2.82-84.13-5.06-135-4-81.09,1.74-65,9.15-99.29,6-2.59-.24-41.88-3.93-70.49,8.93-2.82,1.27-16.22,7.5-15.89,14.9.22,4.92,6.39,7.16,6,12.9-.3,3.91-3.27,4.49-6,9.93-3.28,6.64-3.67,15.52-1,16.88,3,1.53,6.67-8,17.87-12.91,7.91-3.43,12.45-1.42,27.8-2,7.39-.27,10.26-.88,25.82-3,25.72-3.48,62.52-7.85,72.48-8.94,11.7-1.27,51-.2,129.07,2,24.93.7,38.17,1.1,56.6,2,0,0,32.59,1.56,63.55,4,53.47,4.16,84.21,9.54,121.13,13.9,89.33,10.54,84.33-.35,155.88,8.93,39.62,5.15,78.38,15,155.89,34.75,50.42,12.84,86.06,21.92,134,37.74,53.69,17.69,97.86,35.59,130.07,49.64a493.23,493.23,0,0,1-70.5,0c-25.29-1.84-47.3-5.46-76.45,1-5.15,1.14-23,5.36-34.75,19.86-2.28,2.82-8.6,10.64-6,15.89,2.25,4.46,9.89,4.86,11.92,5,7.49.39,13.1-2.66,15.88-4,9.61-4.54,16.4-3,33.76-3,26.15,0,25.68-3.63,67.52-6,20.37-1.13,30.55-1.69,44.68-1,6.06.3,25.43,1.46,62.55,9.93a701,701,0,0,1,78.44,22.84l28.8-32.77C1504.54,898,1496.67,894,1487.34,889ZM880.68,552.38a186.79,186.79,0,0,1,37.73-64.53,417.46,417.46,0,0,0-2,53.61c.3,10.83,1,21.11,2,30.78l-44.68,7.94A181.61,181.61,0,0,1,880.68,552.38Zm-60.57,142c-1.46-7.06,10.12-13.85,24.82-41.7a212.08,212.08,0,0,0,12.91-29.79l65.53-7.94a212,212,0,0,0,33.76,92.34C851.7,712.57,822.25,704.69,820.11,694.37Z" transform="translate(-202.88 -325.01)"/><path class="cls-1" d="M1731.1,669.05c-1-7.19,5.55-14.21,11.91-19.36-15.82-4.12-37.73-9.49-64-14.9-39.41-8.09-64.32-13.2-97.55-15.63-40.72-3-68.8-5-105,3-29.9,6.62-61.49,7-90.11,17.88-1.36.51-11.76,4.52-23.08,1.49-3.24-.87-8-2.23-10.43-6.71-2.74-5.11-.48-10.78,0-11.91,43.42-2.66,63.94-5.33,74.47-7.45,5.8-1.16,10.48-2.54,18.62-3,14-.74,19.93,2.29,23.08-1.49,2.89-3.45,1.42-10.19-.74-20.1-1.2-5.49-2.3-7.54-1.49-11.17,1.42-6.42,6.71-8.43,6-10.43-1.11-3-13.19,0-30.53,1.49-16,1.34-13.07-.59-31.27.75-9.68.71-16.52,1.69-26.07-.75-9.3-2.37-11.89-5.63-12.66-6.7-5.52-7.69-.6-18.79,0-20.11,64.92,14.9,114.09,12.57,147.45,7.45,29.91-4.59,40.79-10.45,71.49-10.42,42.09,0,93.83,1.48,93.83,1.48,8.07.23,29.82.86,32.76-7.44,1.4-4-2.63-6.67-4.47-16.38-2.37-12.55,2.49-17.91,0-22.35-5.76-10.31-42.36,0-53.61,3-3.59.94-49.11,2.13-140,4.47-80.67,2.08-97.84,2.27-113.94-1.49-10.74-2.51-22-7-38-5.21-8.79,1-15.67,3.51-26.07.74-7-1.84-9.85-4.56-13.4-3-5.78,2.57-9.39,14.81-5.22,23.08,6.75,13.37,31.11,11,32.77,21.6.35,2.24-.75,2.32-.74,7.44,0,6.93,2,9.12,2.23,14.9a24.16,24.16,0,0,1-2.23,11.91c-3.75,7.3-9.53,6.08-14.15,12.66-2.75,3.9-1.89,6-3.73,19.36-1.69,12.28-2.53,18.42-4.46,22.34-4,8.1-11.41,11.47-26.07,17.87-18.07,7.9-35.53,15.54-45.42,7.45-5.1-4.16-5.9-10.63-6-11.17-1.15-10.49,9.39-14.49,15.64-29,6.57-15.31-1.1-20.18,5.21-27.55,11.36-13.27,46-8.95,52.13-8.2,6.38.8,11.3,2,13.4-.74,4.13-5.31-9-17.31-6.7-34.26a32.22,32.22,0,0,1,3.72-11.17c-5.91,1-15.32,2.63-26.81,5.22-31.12,7-29.77,10-46.17,11.91-15.66,1.8-24.35-.11-29.78,6.7a15.75,15.75,0,0,0-3,13.41c2.17,8.12,11.7,11.34,13.4,11.91,8.13,2.75,12.93-.42,14.9,2.24,2.46,3.32-4.07,9.64-10.43,22.34-5.29,10.56-3.84,12.32-13.4,37.23-5.35,14-6.36,14.85-7.45,14.89-6.67.3-21.93-31.28-11.91-52.12,2.88-6,8.78-13,6.7-21.6-.91-3.72-2.45-4.15-4.47-8.93-4.91-11.6-1.41-22.2-2.23-22.34-1.16-.21-6.47,21.17-11.17,50.63-3.74,23.41-3.42,28.91-3,32.77,1.53,13.64,5.83,19.39,2.23,23.83-3.2,4-8.71,2-32.77.74-17-.88-20.35-.22-22.34-3-4.61-6.4,7-19.28,17.88-38,27.6-47.23,29.48-94.59,20.85-108.73a60.14,60.14,0,0,1-7.45-14.15c-3.2-9.14-2.37-14.81-5.21-15.63s-7.54,3.54-8.19,8.19c-.6,4.25,2.35,7.72,3.72,9.68,1.77,2.53,4.79,8.05,2.23,32.76-2.77,26.79-9.79,54-11.91,53.62-.74-.13-.12-3.51-1.32-13.39-.72-6-1.64-10.48-2.4-14.16-2-9.4-2.82-10.31-5.22-20.11-3.8-15.56-3.73-22.08-7.44-23.08-3.53-1-6.3,4.18-8.94,3-3.6-1.65.63-11.68-3-21.6-3.17-8.72-10.92-13.3-14.89-15.64s-12.66-6.48-38.72-4.47a215.64,215.64,0,0,0-39.47,6.71,245.14,245.14,0,0,0-50.64,20.1c-3.24,4.29-9.21,13.64-8.19,25.32.17,2,1.17,13.45,7.44,15.64,2.91,1,5.43-.51,10.43-3,14.94-7.39,12.81-3.9,32-13.4,3.56-1.76,8.43-4.26,14.15-7.45.14,4.29.15,8.76,0,13.4a214.29,214.29,0,0,1-3.72,33.51,25.54,25.54,0,0,0-11.92,6c-1.14,1-7.84,7.26-8.19,17.13-.27,7.59,3.23,17.19,8.19,17.87s8.21-7.62,10.43-6.7c3.37,1.41-1.11,22-3,49.15-.3,4.31-.68,11.16,3.72,16.38,3.35,4,8.11,5.39,11.17,6a72.21,72.21,0,0,1-3-15.64c-.65-8.52.41-14.87,2.24-25.32,2.81-16.12,4.8-17.13,5.21-27.55.3-7.78-.74-8.8.75-11.92,3.34-7,11.4-7.66,24.57-13.4A122,122,0,0,0,1103.34,567c-9,12-21.89,33.49-23.83,61.81-.91,13.19-2.26,32.83,9.68,43.19,8.55,7.43,17.9,4.83,20.85,11.91,3.88,9.32-10.81,17.42-8.94,32.77,1.23,10,9.07,19.34,14.15,18.62,4.07-.59,4.51-7.34,8.94-14.15,6.52-10,17.22-13.34,32.76-17.88,24.19-7,49.28-14.38,72.24-3.72,7.38,3.43,17.24,10,25.31,6,4.18-2.08,3.77-4.94,8.2-8.19,7.72-5.68,14.32-.88,30.53-2.24,7.45-.62,24.83-2.08,30.53-12.66,2.4-4.46,1.39-8.06,3.72-8.93,4.78-1.79,10,12.9,22.34,17.87,9.18,3.68,17.09-.07,31.28-4.47,16-4.95,32.87-6.5,49.15-10.42a735.94,735.94,0,0,1,78.93-13.41c87-10.14,172.93,10.82,183.19,13.41.31.07,49,12.33,50.64,7.44C1743.81,681.54,1732.33,677.67,1731.1,669.05ZM1101.1,538c-2.14,2.47-9.12,10.5-19.36,12.66-3.32.7-6.55.68-11.17,3-4.86,2.41-6,4.78-7.45,4.47-2.34-.5-4.21-8.07-1.49-41a90.43,90.43,0,0,1,38.73-4.47c14.32,1.56,26.26,6.54,26.06,7.44-.15.69-7.05-2.41-13.4.75S1108.34,529.66,1101.1,538Zm46.17,55.85c-1.77,12-5.53,20-11.91,33.51-9,19-13.9,21-16.39,21.59-7.09,1.73-15.19-2.49-19.36-8.19-5.91-8.09-3.29-18.3-1.49-25.32,3.12-12.13,8.42-17.32,17.88-31.27,17.55-25.91,19-37.22,23.82-36.49C1146.82,548.74,1150.2,574,1147.27,593.84Z" transform="translate(-202.88 -325.01)"/><path class="cls-1" d="M1209.08,470.22a27.23,27.23,0,0,0,3.72,24.58c5.88,7.74,14.92,9,32.77,11.17,15.61,1.9,32.92,4,37.23-3.73,2.57-4.6-2-8-3.72-20.85-2.18-16.69,4.19-21.93.74-27.55C1271.46,440.2,1218.1,445,1209.08,470.22Z" transform="translate(-202.88 -325.01)"/></svg>