<svg id="Layer_2" data-name="Layer 2" xmlns="http://www.w3.org/2000/svg" viewBox="0 0 1553.55 1016.51"><defs><style>.cls-1{fill:#f1f2f2;}</style></defs><title>tamere2</title><path class="cls-1" d="M470,428.26q23-14.46,46-28.94l-6.81-37.46L454.72,387.4Q437.41,346.68,417.26,304c-18.48-39-37.32-75.91-56.19-110.67-12.13,59-14.18,103.77-13.62,134.51.57,31.21-6,63.39,1.7,93.64,2.55,10,8.15,27.2,0,42.57-5.13,9.7-12.57,12.68-11.91,20.43.7,8.27,9.6,10,18.73,23.84,3.56,5.39,5.21,9.84,8.51,18.73,7.78,21,6.06,29,11.92,46A118.47,118.47,0,0,0,390,600.23c12.19-5.42,26.24-13.86,27.24-25.54.74-8.69-6.26-13.2-13.62-25.54-1.17-1.95-17.12-29.44-11.92-56.18,4.9-25.22,28.53-49.45,44.27-46,9.17,2,14.26,13.15,23.84,34.06,10.55,23.06,10.2,34.71,22.13,42.56,7.3,4.81,18.16,7.51,22.14,3.41,4.82-5-4.36-17.35-10.22-35.76A627.79,627.79,0,0,0,470,428.26Zm-44-25.54c-4.69,21.5-32.73,38.58-44.27,32.36-8.77-4.73-3.51-20.46-5.11-63-1.79-47.65-10.09-73.38-5.11-74.92,3.17-1,7.58,9.11,27.24,44.27C423,384.75,428.55,391.25,426.06,402.72Z" transform="translate(-211.45 -11.09)"/><path class="cls-1" d="M800.64,378.89c-9.31-14.53-17.15-23.79-13.62-30.65,4.14-8.06,18.78-2.68,25.54-11.92,7.05-9.64,1.65-29.92-10.22-37.46-11-6.95-19.54,1.92-32.35,0-48.35-7.24-85.88-157.62-88.54-168.56-1.58-6.52-5.48-23.33-15.32-25.54s-20.85,11.55-23.84,15.32c-7.55,9.54-11.92,20-14.36,32.56-11.68-23-40.19-39.9-62.26-36C553.25,118.9,541.5,128.94,518,149c-16.4,14-26.45,25.25-35.76,22.13-7.09-2.37-15.31-13.61-15.32-13.62-17.82-27.89-20.43-27.24-20.43-27.24-5.8,1.44-3.93,28.21-3.41,35.76,1.46,21,4.92,21.2,5.11,35.75.34,25.6-10.25,33.94-3.41,44.27,7,10.52,24.54,11.77,27.25,11.92,10,.56,11.16-3.05,17-1.7,7.05,1.62,11.73,8.3,27.25,51.08,11.37,31.36,11.78,35.84,11.91,39.16.48,11.41-1.88,18.33,1.71,30.64,2.39,8.23,5.11,10.9,10.21,20.44,5.34,10,8.67,20.27,15.33,40.86,9.75,30.16,9.56,37,17,40.86,8.85,4.55,22.13,1.57,25.54-5.1,2.74-5.37-2.09-10.79-8.51-25.54-4.69-10.78-7.1-20.24-11.92-39.16-6.15-24.17-9.23-36.25-5.11-40.87,9.16-10.26,44-2.92,61.3,18.73,5.54,6.93,6.14,11.39,15.32,56.19,7.8,38,10.46,50,18.73,64.7,6.76,12.05,20.31,31.45,27.24,28.94,8.3-3,3.76-36.1,1.71-51.08-3.93-28.67-9.36-34.26-11.92-61.29-1.93-20.3-2.89-30.44,1.7-42.57,7.69-20.28,29.29-42.23,47.67-39.16,19.12,3.2,18,30.65,52.79,66.41,15.53,15.94,35.29,30.55,39.16,27.24C830.85,432.79,814.66,400.77,800.64,378.89ZM550.35,275c-18.11.49-42.14-35.55-34.05-66.41,7.87-30.05,44.73-49.6,59.59-40.86,10.71,6.3,9.33,26.91,8.51,39.16C582.58,234.14,569.26,274.51,550.35,275ZM627,327.81c-17.53,8.79-39.14,17.59-46,10.21-7.62-8.21,9-30.15,27.24-74.91,6.91-16.92,13-31.74,17.43-45,.42,14.19,1,30.19,1.3,48.42C627.39,290.92,627.25,311.78,627,327.81ZM717.21,304c-3.19,5-10.57,2.25-25.54,6.81C671.3,317,667.23,327.53,661,326.11c-20.68-4.75-16.48-131,0-132.81,7.64-.84,7.25,26.24,37.46,71.51C709.84,281.84,722.09,296.28,717.21,304Z" transform="translate(-211.45 -11.09)"/><path class="cls-1" d="M919.82,212A167.47,167.47,0,0,1,879,196.7c-21.1-11.26-23.08-18.24-42.57-27.24-12.12-5.6-35.32-16.31-56.18-6.81-7.48,3.41-18.36,11.09-17,17,1.92,8.59,27.92,6.91,63,10.21,40.47,3.81,86.92,8.19,126,35.76,10.29,7.26,31.33,22.5,44.27,51.08,3.68,8.11,15.19,34.53,8.52,68.1-1.81,9.07-6.86,32.83-27.25,52.79-4,3.93-10.31,10.69-20.66,16.45-6.39,3.56-29.07,16.2-52.55,9.09-25.3-7.67-50.33-37.91-40.86-63,8.33-22.1,38.83-27,40.86-27.24a46.19,46.19,0,0,0-10.22,28.94c.14,14.6,7.55,33.32,18.73,35.76,18.44,4,54.68-34.66,52.79-73.22-1.94-39.4-42.95-63.72-64.71-76.62-23.78-14.1-49.74-17.21-100.45-25.54-46.74-7.67-66.7-6.87-78.32-23.83-9.09-13.26-10.94-34.25-1.71-46,4.85-6.15,11.07-7.63,27.25-11.92,54.5-14.46,48.66-14.85,56.18-15.33,24.15-1.53,41.76,5.22,68.11,15.33,23.17,8.88,34.91,13.57,42.57,25.54C925.86,183.49,921.82,204.11,919.82,212Z" transform="translate(-211.45 -11.09)"/><path class="cls-1" d="M987.93,115c-8.55,6.82-3.86,25.17,1.7,46,15.2,56.85,41,76.66,32.35,91.94-9.93,17.47-50.28,3.1-57.89,20.43-4.86,11.08,5.61,30.62,18.73,34.06,17.41,4.55,30.4-21.64,44.27-17,11.27,3.75,9.75,23.39,18.73,56.19,8.3,30.33,26.77,76.28,40.86,74.91,8.59-.83,15.32-19.21,15.33-34.05,0-13.71-5.73-20.66-17-42.57-15.9-30.81-27.91-54.09-20.43-63,4.44-5.29,11.34-.26,28.94-1.71,35-2.87,51.4-26.31,63-18.73,1.19.78,3.84,2.88,6.81,22.14,3.88,25.17,1.27,34.08,3.41,49.38,3.06,22,13.18,37.47,18.73,46,14.19,21.74,36.69,41.39,42.56,37.46,3.16-2.12-.13-9.94-5.1-32.35-1.87-8.43-4.09-22.08-8.52-49.38-5.66-34.87-2.06-34.62-6.81-68.11-6-42.63-12.63-48.39-13.62-81.72-.72-24.4,2.83-20.45,1.7-40.87-.82-14.79-3.18-25.9-25.54-91.94-6.24-18.44-14.23-41.73-18.73-40.86-4,.76-1.53,19.84-8.51,22.13-6.77,2.22-15-13.77-20.43-11.92-6.64,2.29-2.83,29.68-1.7,37.46,8.4,58.24,12.6,87.35,25.54,126,5.52,16.51,11.44,31.82,5.1,37.45s-18-5-37.45-1.7c-18.41,3.11-19.5,14.58-32.35,15.33-23.83,1.38-55.79-35.89-54.49-69.81.62-16.11,8.4-22.85,3.41-34.06C1023.43,116.15,997.81,107.1,987.93,115Z" transform="translate(-211.45 -11.09)"/><path class="cls-1" d="M683.16,932.25c-2.7-18.5-19.82-21.28-42.57-49.38-13.75-17-22-26.77-20.43-39.16,2.41-18.64,23.74-23.55,25.54-44.27,1.15-13.34-6.17-28.79-15.33-30.65-14-2.83-21.24,31.1-39.16,32.35-17.72,1.24-28.77-30.35-57.89-74.91-22.88-35-65.77-91.62-80-85.13-6.14,2.79-3,15.43-1.7,66.4,1.36,53.76-2.38,47.7,0,78.32,1.61,20.82,4,32.31,10.21,88.54,3.21,29.1,3.83,37.45,0,39.16-9.43,4.2-29.47-39.14-71.51-73.21-12.19-9.88-17.78-15.1-28.95-25.54-13.76-12.87-20.67-19.39-22.13-23.84-5.08-15.5,10.15-24.82,30.65-64.7,14.63-28.49,11.42-32.59,27.24-59.59,11.75-20.06,15.63-21.38,18.73-32.35,8.21-29.08-6-65.74-18.73-66.41-16.87-.88-38.2,61.49-56.19,114.08-5.81,17-14,43.09-37.46,63-8.6,7.3-11.25,7-17,13.62-17.85,20.55-5.67,38.83-15.33,73.21C260.94,868,232.55,900.7,230.25,903.3c-10.06,11.41-17.89,17.51-18.73,29-1.29,17.5,14.39,39.22,28.95,39.16,28.58-.12,53.88-84.28,56.18-91.94,8.54-28.39,7.43-40.19,17-44.27,20.84-8.86,58,33.17,78.32,56.19,24.55,27.78,37.12,42,47.68,66.4,10.83,25,14.79,49.84,35.75,63,10.72,6.72,20.18,6.82,22.14,6.81s17.62-.36,25.54-10.22c9.83-12.24-3.88-24.64,0-47.67,3.31-19.71,14.83-19.49,39.16-57.89C577.69,887.47,579,878,586.1,877.76c12.82-.37,14.9,30.54,46,59.6,5.42,5.06,29.36,27.46,42.56,20.43C682,953.88,684.53,941.67,683.16,932.25ZM560.56,808c-3,9.26-16.94,5.19-37.45,20.43-20.79,15.44-22,31.09-28.95,30.64-21-1.33-37.3-144.94-18.73-149.83,4.67-1.23,7.51,7.37,27.24,30.65C539.28,783,564.8,795.07,560.56,808Z" transform="translate(-211.45 -11.09)"/><path class="cls-1" d="M814.26,964.6c-15.3-2-23.07-22.77-47.67-100.46-23-72.66-34.52-109-40.87-134.51-8.68-34.87-12.08-54.23-23.84-91.94-9.38-30.1-16.35-38.31-22.13-63-9.11-38.92-9.83-83.24-1.7-85.13,5.39-1.25,11.13,17,42.56,81.73,0,0,18.79,38.67,68.11,114.07,8,12.23,17,25.64,22.13,23.84,3.57-1.25,4.44-9.6,0-54.48-3.68-37.31-6.13-50.28-8.51-78.33-2.25-26.57-3.34-40.22-1.7-57.89,2.66-28.66,11.38-61.59,18.73-61.29,5,.21,5.08,15.55,15.32,40.86,7.77,19.2,14.68,27.56,27.24,47.68,10.89,17.43,20.32,36,39.16,73.21,23.6,46.56,21.37,47.76,40.87,86.84,35.19,70.54,56.47,94.72,61.29,144.72.76,7.83,3.49,36.14-5.1,39.16-3.16,1.11-10.58-.22-30.65-30.65-33.75-51.15-41.15-90.41-63-144.72-16.63-41.34-40.73-89.16-47.67-86.84-7.34,2.45-6.08,64.3,8.51,120.89,3.06,11.88,8.84,31.78,0,39.16-7.75,6.48-22.92.12-27.24-1.7-48.45-20.32-59.05-87.59-71.51-85.13-8,1.57-8.49,29.93-8.52,32.35-.3,23.7,4.81,63.59,47.68,129.4,28.21,43.31,47.2,58.61,40.86,78.32C842.25,954.3,827.12,966.28,814.26,964.6Z" transform="translate(-211.45 -11.09)"/><path class="cls-1" d="M1161.6,743.25c-8.68-2.54-24.31,25.41-27.24,30.65-15,26.77-9.3,38-20.43,49.38-16.82,17.17-52.63,14.89-76.62,1.7-29-15.92-49.16-52.4-39.16-71.51,2.35-4.51,5.85-7,25.54-15.32,48.32-20.41,61.92-19.94,73.21-32.35,11.62-12.78,11.89-29.4,11.92-51.08.07-51.21-19-89.66-37.46-126-30-58.94-58.61-87-76.62-102.16-15.18-12.74-35.7-29.63-47.67-23.27-8.52,4.53-7,17.8-8.52,81.16-.72,30.39-1.31,31.26-1.7,61.3-.54,41.48-.2,57.56,0,63,.16,4.27.95,24.62,3.41,49.37,7,70.6,10.51,105.9,25.54,134.51,8.88,16.93,37.63,64.66,90.24,78.32,11.26,2.93,37.26,9.68,63-3.4,22.56-11.47,32.28-31.76,37.46-42.57C1173.38,789.74,1171.59,746.18,1161.6,743.25ZM977.71,687.07c-4-2.42,5.86-25.64,8.52-32.35,32.16-81.32-33.92-179.59-18.73-189,18.71-11.59,138.25,125.78,112.37,161.75-9.9,13.78-34.7,3.78-68.1,28.95C992.07,671.27,981.41,689.27,977.71,687.07Z" transform="translate(-211.45 -11.09)"/><path class="cls-1" d="M1578.75,727.93c-12.31-24.5-68.33-24.22-144.73-23.84-11.18.06-34.18.54-61.29-8.51-10.24-3.42-10.3-4.6-18.73-6.81-17.73-4.65-29.33-2.53-61.3,0-38.93,3.08-43.93,1.7-46-1.7-5.3-8.85,11.43-27.91,15.33-32.35,49.8-56.76,113.45-39.78,132.8-80,12.39-25.75.29-61.73-18.73-80-13.21-12.71-28.53-15.7-52.78-20.43-19.48-3.81-48.49-9.47-81.73,0-21.29,6.06-35.16,15.74-46,8.51-9.41-6.3-7.36-19.29-13.62-20.43-8.57-1.56-21.09,21.18-27.24,40.86-6.85,21.91-6,40.6-5.11,56.19,1.25,22.51,5.62,43.77,8.51,57.89,5.6,27.23,9.91,37.92,3.41,49.38-6.09,10.73-15.65,11.53-17,20.43-1.73,11.18,11.78,20.15,20.44,28.94,36.78,37.38,9,95.15,35.75,109,15.66,8.09,41.34-3.33,44.27-15.32,3-12.36-19.15-21.14-18.73-39.16.4-17.39,21.51-30,25.54-32.35,38-22.61,66.47,11.76,158.35,18.73,61.38,4.65,77.06-8.54,114.07,8.51,12.15,5.59,26.79,14.54,39.16,8.51C1577.12,767.23,1586.35,743.05,1578.75,727.93ZM1199.06,610.45c-2-4.71-16.78-40.43,1.7-68.11,10.66-16,26.89-21.05,47.67-27.24,33.94-10.11,90.76-16.08,100.46,5.11,6.52,14.22-10.78,35-17,42.56C1292.07,610.69,1221.85,611.2,1199.06,610.45Z" transform="translate(-211.45 -11.09)"/><path class="cls-1" d="M1626.42,836.9c11.78,15.25,11.62,41.64,1.71,49.38-5.7,4.44-13.67,2-23.84,0-21.73-4.27-44.28-.92-66.4-1.71-41.57-1.47-76.75-.46-92,0-55.44,1.69-64.65,5.44-81.72-3.4-18.85-9.76-37.22-29.66-39.17-52.78-1.47-17.56,7.06-30.61,15.33-44.27,25-41.26,46.68-86.53,57.89-117.48,16.29-45,24.44-67.51,27.24-100.46,1.34-15.82,1.4-33.14,13.62-42.57,12-9.23,27.55-4.69,49.38-1.7,35,4.8,25.62-2.69,86.83,0,45.08,2,33.15,5.3,114.08,13.62,34.71,3.57,49.45,4.25,61.3,17,14.92,16.09,18.81,44.45,8.51,52.78-10.8,8.73-30.46-10-71.51-25.54-19.9-7.53-90.53-34.27-143-8.51-16.59,8.14-30,27.1-56.19,64.7-55.62,79.89-90.36,129.79-73.22,158.34,7.51,12.51,25,15.89,59.6,22.14C1562.85,832.35,1606.29,810.83,1626.42,836.9Z" transform="translate(-211.45 -11.09)"/></svg>