<svg id="Layer_2" data-name="Layer 2" xmlns="http://www.w3.org/2000/svg" viewBox="0 0 1817.86 310.72"><defs><style>.cls-1,.cls-2{fill:#ed1c24;}.cls-2{stroke:#231f20;stroke-miterlimit:10;}</style></defs><title>lemonde2</title><path class="cls-1" d="M63,479.15q-.78,65.13-1.55,130.26l89.94-.77V569H104.78V478.3Z" transform="translate(-61.46 -313.45)"/><path class="cls-1" d="M329.74,607.86,330.52,452h44.2v73.77l10.85,14.63,8.53-13.19V448.91h45V603.22H411.14V498.53q-7,53.51-13.94,107H377q-9.3-56.22-18.59-112.43V606.32Z" transform="translate(-61.46 -313.45)"/><path class="cls-1" d="M565.45,507.84v93.87h33.38V531l10,.07v71.4H633.7V525.66a18.66,18.66,0,0,0-.79-9.29c-.26-.73-3.48-9.31-12.4-11.63-10.19-2.65-17.91,5.44-18.61,6.2a20.52,20.52,0,0,0-4.66,8.53v-15Z" transform="translate(-61.46 -313.45)"/><path class="cls-1" d="M1073.84,523.61c-2.73,3.78-3.16,10.54,0,13.95,2.87,3.09,6.83,1.43,12.93,2.59,9.35,1.78,18.09,9.17,22.22,18.09,5.8,12.53.94,24.67-.51,27.91-1.26,2.79-5.19,11.21-14.48,16-11.77,6.1-23.56,2-32-1-6.25-2.19-11.45-4.11-14-9.3-3.24-6.71-.55-15.94,2.58-16.54,2.19-.42,3,3.67,7.75,6.2,6.39,3.4,16.38,2.12,18.61-2.58s-3.57-11.46-5.68-14c-7.32-8.67-13-7-19.13-13.44-7.14-7.49-9.33-20-6.2-30.5,3.59-12.06,13.28-18,16-19.64,18-11,38.31-2.64,40.84-1.55v23.26C1090.18,516.57,1078.18,517.6,1073.84,523.61Z" transform="translate(-61.46 -313.45)"/><path class="cls-1" d="M1120.36,490v25.33h12.42v46.23a31.54,31.54,0,0,0,0,6.57c1.64,12,12,19.56,13.43,20.6,9.75,6.92,25.49,10,36.18,2.58,1.64-1.14,8.17-5.69,9.31-14a19.82,19.82,0,0,0-2.59-12.41c-1.6,4.56-6.38,6.61-9.82,5.17a7.45,7.45,0,0,1-4.13-7.24V518.94h15c.29,0,.45-5.83,0-29h-14.54V449.14h-14.19a18.46,18.46,0,0,1-2.86,10.37c-4.62,7-14.49,10.09-24.82,7.75v23.83Z" transform="translate(-61.46 -313.45)"/><path class="cls-1" d="M1288.88,456.41q15,16,30,32h25.33q-9.82-16.8-19.64-33.6Z" transform="translate(-61.46 -313.45)"/><path class="cls-1" d="M1455.33,483.8l40.32,108.56,16,.51,37.74-108h-35.16l-5.68,78.05q-9.57-40.32-19.13-80.64Z" transform="translate(-61.46 -313.45)"/><path class="cls-2" d="M1447.06,508.1c73.76-2.43,104.07-1.15,104.41,2.58.63,6.9-101.54,19.89-100.79,27.92.7,7.57,92.28,2.22,93,9.82.45,4.52-31.37,11.92-80.64,20.67" transform="translate(-61.46 -313.45)"/><path class="cls-1" d="M1461,439.87c-1-19.05.87-18.43,0-41.93-.4-11,.76-22.16-1-33-1.19-7.24-2.9-13.48.52-17.06s10.21-2.59,14.47-1.55c4.34,4.24,11,11,18.61,19.65,29.55,33.71,41.43,60.42,48.59,57.89,3-1.06,3.63-6.74,4.65-16,.64-5.85.52-11.64-1.55-24.82s-3.43-16.78-5.69-31c-2.46-15.57-2-18.75-1-21.71,3.65-10.83,14.66-18.41,17.58-16.54,1.72,1.1,0,5.12-1,13.95-.82,6.8-.51,10.23,0,24.3,1.46,39.81-.21,32.89,1,44.45,1.43,13.29,3.54,21.54-1,31.54-2.25,4.92-3.48,4.48-5.68,9.3-7.37,16.12,1,32.66-1.55,33.6-1.46.53-5.41-4.26-7.76-10.34-5.12-13.27,1.68-21.61-3.1-31-3-5.86-8.14-7.61-14-10.86-29.55-16.5-37.33-49.95-43.93-47.55-2.08.75-2.28,6.88-2.59,19.12-.64,25.28,2.12,33.62-3.1,46-2.22,5.27-3.17,4.83-5.17,10.34-5.29,14.6-2.11,27.34-2.58,27.39S1462.16,461.45,1461,439.87Z" transform="translate(-61.46 -313.45)"/><path class="cls-1" d="M256.85,589.25a60.62,60.62,0,0,0,0-19.38c-.86-5.33-2.6-15.38-10.08-24.81-2.36-3-12-14.75-28.68-17.06s-33.46,5.73-41.87,18.61A41.91,41.91,0,0,0,170,564.44c-2.22,15.57,3.74,27.71,6.21,32.57s6.32,12.45,14.73,18.61c11.33,8.3,23.29,8.43,32.56,8.53,11,.11,21.68.23,26.37-7,3.68-5.68,1.83-13,.77-16.28a52.61,52.61,0,0,1-19.38,8.52c-5.28,1.12-21,4.42-25.59-3.1-3.5-5.67,1.23-14.35,2.33-16.28Zm-49.62-40.32c5.62-3.49,12.52-2.61,16.28,1.56,3.47,3.84,3.33,9.43,1.55,13.18-2.72,5.75-10.16,9-17.83,7Z" transform="translate(-61.46 -313.45)"/><path class="cls-1" d="M857.77,572.36a61.22,61.22,0,0,0,0-19.38c-.86-5.33-2.61-15.38-10.08-24.81-2.37-3-12-14.75-28.69-17.06s-33.45,5.72-41.87,18.61a42,42,0,0,0-6.2,17.83c-2.23,15.57,3.73,27.71,6.2,32.57s6.33,12.45,14.73,18.6c11.34,8.31,23.3,8.44,32.57,8.53,11,.12,21.68.23,26.36-7,3.69-5.68,1.83-13,.78-16.29a52.5,52.5,0,0,1-19.39,8.53c-5.27,1.11-20.94,4.42-25.58-3.1-3.51-5.68,1.22-14.36,2.32-16.28ZM805,552.27V530.56c5.62-3.5,12.52-2.62,16.29,1.55,3.46,3.84,3.32,9.43,1.55,13.18C820.07,551,812.63,554.25,805,552.27Z" transform="translate(-61.46 -313.45)"/><path class="cls-1" d="M1031.89,550.67a60.63,60.63,0,0,0,0-19.38c-.86-5.33-2.6-15.38-10.08-24.82-2.36-3-12-14.75-28.69-17.05s-33.45,5.72-41.87,18.61a42,42,0,0,0-6.2,17.83c-2.23,15.57,3.74,27.71,6.2,32.57S957.58,570.88,966,577c11.33,8.31,23.29,8.44,32.56,8.53,11,.12,21.68.23,26.37-7,3.68-5.67,1.83-13,.77-16.28a52.44,52.44,0,0,1-19.38,8.53c-5.28,1.11-20.95,4.42-25.59-3.1-3.51-5.68,1.23-14.36,2.32-16.28Zm-52.8-20.09V508.87c5.61-3.5,12.52-2.62,16.28,1.55,3.47,3.84,3.32,9.43,1.55,13.18C994.19,529.35,986.75,532.56,979.09,530.58Z" transform="translate(-61.46 -313.45)"/><path class="cls-1" d="M542.19,507.06c-15.86-18.87-44.07-14.38-46.52-13.95-3.45.6-28.5,5.43-39.54,29.46-.8,1.73-11,25.07,2.32,47.3.86,1.42,10.92,17.59,30.76,22.72a52.39,52.39,0,0,0,17.32,1.32c7.66-.49,24-1.52,34.89-13.18,9.62-10.33,9.86-23.53,10.08-35.67S552,518.7,542.19,507.06Zm-29.46,38.77c-2.58,20.06-5.43,21.9-7,22.49-4.06,1.55-9.91-1.33-12.41-5.43-2.39-3.93-.64-7.27,0-14.73,1.38-15.91-4.79-21-.77-26.36S507,515.3,512,519.47C515.63,522.57,514.72,530.37,512.73,545.83Z" transform="translate(-61.46 -313.45)"/><path class="cls-1" d="M703.35,441.15v54.34c-.76-2.83-3.57-11.9-11.51-15.56-11.47-5.29-26.07,4.21-32.57,13.95-4,6.06-4.5,14.38-5.42,31-.88,15.85-1.33,23.78,1.55,31.79,1.48,4.13,6.32,17,19.38,24,4.61,2.46,14.1,7.55,23.26,3.1,9.32-4.53,11.37-15.54,11.63-17.06v16.45h34.16V441.15ZM687.19,554.36V510.94l22.48-.77.78,43.42Z" transform="translate(-61.46 -313.45)"/><path class="cls-1" d="M1365.9,519.47c-1.5-9.49-10.69-14.69-14-16.54-2.84-1.61-11.07-5.78-38.77-3.62a243.57,243.57,0,0,0-29.46,4.14v24.81h12.42v-8.41a27.06,27.06,0,0,1,35.14,15.65,53.06,53.06,0,0,0-17.06-1.56c-4.85.35-14.51,1-23.78,7.76-2.72,2-13.26,9.6-15.51,23.78-.42,2.64-2.61,16.52,7.24,26.88,11.51,12.08,28.7,8.07,30,7.75a33.94,33.94,0,0,0,19.13-13.44v11.89h33.61V528.77A18.64,18.64,0,0,0,1365.9,519.47Zm-32.51,58.41h-23.83V554.1l23.83-2.11Z" transform="translate(-61.46 -313.45)"/><path class="cls-1" d="M1661.84,552.81c-.92-14.42-1.4-22-7-29.46-9.48-12.62-25.86-14.33-37.22-15.51-12.64-1.32-27.71-2.89-39.54,7-13.29,11.07-13.74,29.23-14,38a67.11,67.11,0,0,0,6.2,29.47c3.66,8.25,8.05,18.12,18.61,24.81,14.74,9.33,31.06,5.81,36.44,4.65s20.8-4.48,30.24-17.83C1663.72,582.47,1662.93,570.12,1661.84,552.81Zm-42.65,30.24c-3.56,3.51-10.34,4.38-14,1.55-3.14-2.46-2.53-6.65-2.32-17.06.46-23.8-2.23-28.44,2.32-32.56,4.31-3.9,12.33-4.84,16.29-1.55,4.65,3.87-.19,10.4,0,31.79C1621.6,575.09,1622.68,579.61,1619.19,583.05Z" transform="translate(-61.46 -313.45)"/><path class="cls-1" d="M1686.65,488.46c1.68,22.55.64,38.64-.78,49.62a67.29,67.29,0,0,0,1.55,27.91c2.5,8.77,5.78,12.64,7,14,1.5,1.65,9.48,10,20.94,9.3,10.29-.63,19.58-8.34,23.26-19.38q.76,8.91,1.55,17.83h40.32q-.78-49.62-1.55-99.24l-44.2.77q.78,34.5,1.55,69l-17.83.77V486.13Z" transform="translate(-61.46 -313.45)"/><path class="cls-1" d="M1802.18,527.22c4-4.64,8.33-6.45,17.06-10.08,7.08-2.94,17.73-7.22,31.79-6.2a60.64,60.64,0,0,1,20.93,5.43q-.76,10.08-1.55,20.16c-1.83-.71-30.14-11.5-35.67-3.1-2.08,3.17-.86,9,2.33,12.4,6.61,7.06,17.34-.85,27.91,5.43,8.4,5,10.78,15.39,12.41,22.49,1.46,6.37,4.44,19.35-2.33,28.69s-20.08,10-38.76,10.85a154,154,0,0,1-38-3.1l.78-20.16h42.64c1.76-3.51,3.56-8.28,1.55-10.86-2.33-3-8-.77-14.73-.77-9.92,0-23.87-4.88-30.24-16.28C1792,550.91,1794.61,536.08,1802.18,527.22Z" transform="translate(-61.46 -313.45)"/></svg>