<svg id="Layer_1" data-name="Layer 1" xmlns="http://www.w3.org/2000/svg" viewBox="0 0 1923.07 1140.63"><defs><style>.cls-1{fill:#fff;}</style></defs><title>banlieues</title><polygon class="cls-1" points="14.4 1096.53 35.82 16.51 35.84 15.31 37.04 15.31 142.7 15.2 144.03 15.2 144.03 16.53 144.59 556.55 144.75 826.56 144.7 1096.58 142.7 1094.58 248.36 1094.58 246.36 1096.58 246.36 16.4 246.36 14.4 248.36 14.4 391.76 14.4 393.76 14.4 393.76 16.4 393.76 1096.61 391.76 1094.61 520.06 1094.61 518.06 1096.61 518.06 16.52 518.06 14.52 520.06 14.52 676.66 14.52 678.66 14.52 678.66 16.52 678.66 1096.54 676.66 1094.54 835.15 1094.54 833.15 1096.54 833.15 16.53 833.15 14.53 835.15 14.53 1027.61 14.53 1029.61 14.53 1029.61 16.53 1029.61 1096.55 1027.61 1094.55 1225.72 1094.55 1223.72 1096.55 1223.72 16.53 1223.72 14.53 1225.72 14.53 1459.68 14.53 1461.68 14.53 1461.68 16.53 1461.68 1096.54 1459.68 1094.54 1704.97 1094.54 1702.97 1096.54 1702.98 556.53 1703.54 16.53 1703.54 15.11 1704.97 15.11 1921.87 15.33 1923.07 15.33 1923.07 16.53 1921.87 1096.53 1920.67 16.53 1921.87 17.73 1704.97 17.96 1706.39 16.53 1706.95 556.53 1706.97 1096.54 1706.97 1098.54 1704.97 1098.54 1459.68 1098.54 1457.68 1098.54 1457.68 1096.54 1457.68 16.53 1459.68 18.53 1225.72 18.53 1227.72 16.53 1227.72 1096.55 1227.72 1098.55 1225.72 1098.55 1027.61 1098.55 1025.61 1098.55 1025.61 1096.55 1025.61 16.53 1027.61 18.53 835.15 18.53 837.15 16.53 837.15 1096.54 837.15 1098.54 835.15 1098.54 676.66 1098.54 674.66 1098.54 674.66 1096.54 674.66 16.52 676.66 18.52 520.06 18.52 522.06 16.52 522.06 1096.61 522.06 1098.61 520.06 1098.61 391.76 1098.61 389.76 1098.61 389.76 1096.61 389.76 16.4 391.76 18.4 248.36 18.4 250.36 16.4 250.36 1096.58 250.36 1098.58 248.36 1098.58 142.7 1098.58 140.7 1098.58 140.7 1096.58 140.65 826.56 140.81 556.55 141.37 16.53 142.7 17.87 37.04 17.76 38.27 16.56 14.4 1096.53"/><polygon class="cls-1" points="0 1096.53 21.42 16.51 21.44 15.31 22.64 15.31 128.3 15.2 129.63 15.2 129.63 16.53 130.19 556.55 130.35 826.56 130.3 1096.58 128.3 1094.58 233.96 1094.58 231.96 1096.58 231.96 16.4 231.96 14.4 233.96 14.4 377.36 14.4 379.36 14.4 379.36 16.4 379.36 1096.61 377.36 1094.61 505.66 1094.61 503.66 1096.61 503.66 16.52 503.66 14.52 505.66 14.52 662.26 14.52 664.26 14.52 664.26 16.52 664.26 1096.54 662.26 1094.54 820.75 1094.54 818.75 1096.54 818.75 16.53 818.75 14.53 820.75 14.53 1013.21 14.53 1015.21 14.53 1015.21 16.53 1015.21 1096.55 1013.21 1094.55 1211.32 1094.55 1209.32 1096.55 1209.32 16.53 1209.32 14.53 1211.32 14.53 1445.28 14.53 1447.28 14.53 1447.28 16.53 1447.28 1096.54 1445.28 1094.54 1690.57 1094.54 1688.57 1096.54 1688.59 556.53 1689.14 16.53 1689.14 15.11 1690.57 15.11 1907.47 15.33 1908.67 15.33 1908.67 16.53 1907.47 1096.53 1906.27 16.53 1907.47 17.73 1690.57 17.96 1691.99 16.53 1692.55 556.53 1692.57 1096.54 1692.57 1098.54 1690.57 1098.54 1445.28 1098.54 1443.28 1098.54 1443.28 1096.54 1443.28 16.53 1445.28 18.53 1211.32 18.53 1213.32 16.53 1213.32 1096.55 1213.32 1098.55 1211.32 1098.55 1013.21 1098.55 1011.21 1098.55 1011.21 1096.55 1011.21 16.53 1013.21 18.53 820.75 18.53 822.75 16.53 822.75 1096.54 822.75 1098.54 820.75 1098.54 662.26 1098.54 660.26 1098.54 660.26 1096.54 660.26 16.52 662.26 18.52 505.66 18.52 507.66 16.52 507.66 1096.61 507.66 1098.61 505.66 1098.61 377.36 1098.61 375.36 1098.61 375.36 1096.61 375.36 16.4 377.36 18.4 233.96 18.4 235.96 16.4 235.96 1096.58 235.96 1098.58 233.96 1098.58 128.3 1098.58 126.3 1098.58 126.3 1096.58 126.25 826.56 126.41 556.55 126.97 16.53 128.3 17.87 22.64 17.76 23.86 16.56 0 1096.53"/><path class="cls-1" d="M-.07,43.69,12.1,32.45,24.34,21.28c4.07-3.72,8.06-7.54,12.3-11.09C38.76,8.42,40.87,6.65,43.05,5l3.27-2.56c1.11-.82,2.2-1.67,3.34-2.47l.13.16c-.93,1-1.91,2-2.87,3L44,6c-2,2-4,3.83-6,5.7-4.06,3.75-8.35,7.23-12.57,10.8L12.76,33.2.07,43.84Z" transform="translate(1.87 16.53)"/><path class="cls-1" d="M-.06,190.7l122.83-90.57C143.25,85,163.66,69.86,184.28,55s41.27-29.73,62.15-44.27l.12.16c-20.2,15.46-40.66,30.58-61.09,45.73s-41.14,29.93-61.74,44.84L.06,190.87Z" transform="translate(1.87 16.53)"/><path class="cls-1" d="M0,325.71l252.5-163.48,63.12-40.89,63.22-40.73c42.25-27,84.47-54,126.93-80.69l.11.16C464,27.71,421.92,55,379.87,82.29L316.64,123l-63.32,40.56L.05,325.88Z" transform="translate(1.87 16.53)"/><polygon class="cls-1" points="1.82 489.26 392.36 252.25 489.99 192.99 587.71 133.88 685.62 75.09 734.58 45.69 783.62 16.45 783.73 16.62 735.05 46.47 686.28 76.18 588.74 135.59 491.01 194.69 393.19 253.62 1.92 489.43 1.82 489.26"/><polygon class="cls-1" points="1.82 633.27 558.9 324.25 698.16 246.98 837.51 169.87 977.04 93.08 1046.81 54.69 1116.66 16.45 1116.76 16.62 1047.25 55.48 977.66 94.2 838.48 171.62 699.12 248.71 559.68 325.65 1.92 633.45 1.82 633.27"/><polygon class="cls-1" points="1.83 777.29 752.45 396.24 1127.83 205.85 1315.72 111.07 1409.67 63.68 1503.7 16.44 1503.79 16.62 1410.08 64.49 1316.3 112.21 1128.73 207.64 753.17 397.67 1.92 777.46 1.83 777.29"/><polygon class="cls-1" points="1.83 918.3 961.54 479.62 1441.46 260.41 1681.61 151.23 1801.68 96.64 1921.83 42.21 1921.91 42.39 1802.06 97.47 1682.14 152.4 1442.29 262.23 962.2 481.07 1.91 918.48 1.83 918.3"/><polygon class="cls-1" points="1.83 1074.31 961.57 685.12 1441.5 490.67 1681.63 393.87 1801.7 345.47 1921.83 297.23 1921.91 297.42 1802.04 346.32 1682.11 395.06 1442.25 492.52 962.17 686.61 1.91 1074.5 1.83 1074.31"/><polygon class="cls-1" points="391.73 1096.52 1156.56 837.23 1539.02 707.72 1730.4 643.41 1826.09 611.25 1921.84 579.26 1921.9 579.45 1826.39 612.12 1730.81 644.62 1539.66 709.62 1157.07 838.74 391.79 1096.71 391.73 1096.52"/><polygon class="cls-1" points="972.66 1096.44 1447.06 961.69 1565.66 927.99 1684.31 894.46 1803.05 861.28 1862.42 844.7 1921.84 828.28 1921.9 828.48 1862.67 845.58 1803.4 862.51 1684.85 896.38 1566.2 929.89 1447.5 963.23 972.72 1096.63 972.66 1096.44"/><path class="cls-1" d="M1703.07,1079.91l108.27-29.75c18.05-5,36.07-10,54.17-14.72s36.24-9.38,54.46-13.67l.06.19c-17.93,5.4-36,10.39-54,15.41s-36.17,9.6-54.28,14.34l-108.63,28.39Z" transform="translate(1.87 16.53)"/><polygon class="cls-1" points="0 1082.13 21.42 2.11 21.44 0.91 22.64 0.91 128.3 0.8 129.63 0.8 129.63 2.13 130.19 542.15 130.35 812.16 130.3 1082.17 128.3 1080.17 233.96 1080.17 231.96 1082.17 231.96 2 231.96 0 233.96 0 377.36 0 379.36 0 379.36 2 379.36 1082.21 377.36 1080.21 505.66 1080.21 503.66 1082.21 503.66 2.12 503.66 0.12 505.66 0.12 662.26 0.12 664.26 0.12 664.26 2.12 664.26 1082.13 662.26 1080.13 820.75 1080.13 818.75 1082.13 818.75 2.13 818.75 0.13 820.75 0.13 1013.21 0.13 1015.21 0.13 1015.21 2.13 1015.21 1082.15 1013.21 1080.15 1211.32 1080.15 1209.32 1082.15 1209.32 2.13 1209.32 0.13 1211.32 0.13 1445.28 0.13 1447.28 0.13 1447.28 2.13 1447.28 1082.13 1445.28 1080.13 1690.57 1080.13 1688.57 1082.13 1688.59 542.13 1689.14 2.13 1689.14 0.71 1690.57 0.71 1907.47 0.93 1908.67 0.93 1908.67 2.13 1907.47 1082.13 1906.27 2.13 1907.47 3.33 1690.57 3.56 1691.99 2.13 1692.55 542.13 1692.57 1082.13 1692.57 1084.13 1690.57 1084.13 1445.28 1084.13 1443.28 1084.13 1443.28 1082.13 1443.28 2.13 1445.28 4.13 1211.32 4.13 1213.32 2.13 1213.32 1082.15 1213.32 1084.15 1211.32 1084.15 1013.21 1084.15 1011.21 1084.15 1011.21 1082.15 1011.21 2.13 1013.21 4.13 820.75 4.13 822.75 2.13 822.75 1082.13 822.75 1084.13 820.75 1084.13 662.26 1084.13 660.26 1084.13 660.26 1082.13 660.26 2.12 662.26 4.12 505.66 4.12 507.66 2.12 507.66 1082.21 507.66 1084.21 505.66 1084.21 377.36 1084.21 375.36 1084.21 375.36 1082.21 375.36 2 377.36 4 233.96 4 235.96 2 235.96 1082.17 235.96 1084.17 233.96 1084.17 128.3 1084.17 126.3 1084.17 126.3 1082.17 126.25 812.16 126.41 542.15 126.97 2.13 128.3 3.47 22.64 3.36 23.86 2.16 0 1082.13"/><path class="cls-1" d="M-.07,29.29,12.1,18.05,24.34,6.88C28.41,3.16,32.4-.66,36.64-4.21,38.76-6,40.87-7.75,43.05-9.45L46.32-12c1.11-.82,2.2-1.67,3.34-2.47l.13.16c-.93,1-1.91,2-2.87,3L44-8.41c-2,2-4,3.83-6,5.7C33.9,1,29.61,4.52,25.39,8.09L12.76,18.8.07,29.44Z" transform="translate(1.87 16.53)"/><path class="cls-1" d="M-.06,176.3,122.77,85.73c20.48-15.09,40.89-30.27,61.51-45.17s41.27-29.73,62.15-44.27l.12.16C226.35,11.91,205.89,27,185.46,42.18S144.32,72.11,123.72,87L.06,176.47Z" transform="translate(1.87 16.53)"/><path class="cls-1" d="M0,311.31l252.5-163.48,63.12-40.89,63.22-40.73c42.25-27,84.47-54,126.93-80.69l.11.16c-41.84,27.63-83.91,54.91-126,82.21l-63.23,40.72-63.32,40.56L.05,311.48Z" transform="translate(1.87 16.53)"/><polygon class="cls-1" points="1.82 474.86 392.36 237.85 489.99 178.59 587.71 119.48 685.62 60.69 734.58 31.29 783.62 2.05 783.73 2.22 735.05 32.07 686.28 61.78 588.74 121.19 491.01 180.28 393.19 239.22 1.92 475.03 1.82 474.86"/><polygon class="cls-1" points="1.82 618.87 558.9 309.85 698.16 232.58 837.51 155.47 977.04 78.68 1046.81 40.29 1116.66 2.05 1116.76 2.22 1047.25 41.08 977.66 79.8 838.48 157.22 699.12 234.31 559.68 311.25 1.92 619.05 1.82 618.87"/><polygon class="cls-1" points="1.83 762.89 752.45 381.84 1127.83 191.45 1315.72 96.67 1409.67 49.28 1503.7 2.04 1503.79 2.22 1410.08 50.09 1316.3 97.81 1128.73 193.24 753.17 383.27 1.92 763.06 1.83 762.89"/><polygon class="cls-1" points="1.83 903.9 961.54 465.22 1441.46 246.01 1681.61 136.83 1801.68 82.24 1921.83 27.81 1921.91 27.99 1802.06 83.07 1682.14 138 1442.29 247.83 962.2 466.67 1.91 904.08 1.83 903.9"/><polygon class="cls-1" points="1.83 1059.91 961.57 670.72 1441.5 476.27 1681.63 379.47 1801.7 331.07 1921.83 282.83 1921.91 283.02 1802.04 331.92 1682.11 380.65 1442.25 478.12 962.17 672.21 1.91 1060.1 1.83 1059.91"/><polygon class="cls-1" points="391.73 1082.12 1156.56 822.83 1539.02 693.32 1730.4 629.01 1826.09 596.85 1921.84 564.86 1921.9 565.05 1826.39 597.72 1730.81 630.22 1539.66 695.22 1157.07 824.34 391.79 1082.31 391.73 1082.12"/><polygon class="cls-1" points="771.84 1140.44 1346.65 976.49 1490.35 935.49 1634.1 894.66 1777.95 854.18 1849.87 833.95 1921.84 813.88 1921.9 814.08 1850.12 834.83 1778.3 855.41 1634.64 896.58 1490.89 937.39 1347.09 978.03 771.9 1140.63 771.84 1140.44"/><path class="cls-1" d="M1703.07,1065.51l108.27-29.75c18.05-5,36.07-10,54.17-14.72s36.24-9.38,54.46-13.67l.06.19c-17.93,5.4-36,10.39-54,15.41s-36.17,9.6-54.28,14.34l-108.63,28.39Z" transform="translate(1.87 16.53)"/></svg>